<svg width="59" height="59" viewBox="0 0 59 59" fill="none" xmlns="http://www.w3.org/2000/svg">
<g clip-path="url(#clip0_710_1380)">
<path d="M50.8357 21.3093H38.3911V8.31643C38.3911 6.44049 37.6579 4.67421 36.3285 3.34474C35.6772 2.68943 34.9025 2.16973 34.0491 1.81569C33.1958 1.46165 32.2807 1.2803 31.3568 1.28212H8.65614C4.77739 1.28212 1.62183 4.43768 1.62183 8.31643V23.4499C1.62183 27.3286 4.77739 30.4842 8.65614 30.4842H9.18811V34.7998C9.18572 35.2269 9.26786 35.6503 9.42979 36.0455C9.59173 36.4408 9.83027 36.8001 10.1317 37.1027C10.4331 37.4054 10.7914 37.6454 11.1859 37.809C11.5805 37.9726 12.0035 38.0565 12.4307 38.0559C13.2816 38.0559 14.1118 37.7179 14.7217 37.089L21.1017 30.7434V43.4762C21.1017 47.3541 24.2609 50.5096 28.1432 50.5096H38.131L44.7575 57.1008C45.2042 57.5635 45.7794 57.8817 46.4088 58.0144C47.0381 58.147 47.6928 58.0879 48.2883 57.8448C48.8882 57.6026 49.4017 57.1859 49.7623 56.6487C50.1229 56.1115 50.314 55.4785 50.311 54.8315V50.5087H50.8357C54.719 50.5087 57.8782 47.3541 57.8782 43.4753V28.3409C57.8782 24.4649 54.719 21.3093 50.8357 21.3093ZM20.8008 27.7655C20.4414 27.7655 20.0967 27.9079 19.842 28.1615L12.7868 35.1786C12.7192 35.2545 12.6292 35.3069 12.5299 35.3284C12.4306 35.3499 12.327 35.3393 12.234 35.2982C12.1337 35.2605 12.048 35.1919 11.9892 35.1023C11.9304 35.0128 11.9015 34.9068 11.9069 34.7998V29.1248C11.9069 28.7643 11.7636 28.4185 11.5087 28.1636C11.2538 27.9087 10.908 27.7655 10.5475 27.7655H8.65614C7.51195 27.7643 6.41497 27.3092 5.6059 26.5001C4.79683 25.6911 4.34178 24.5941 4.34058 23.4499V8.31643C4.34178 7.17224 4.79683 6.07526 5.6059 5.26619C6.41497 4.45713 7.51195 4.00207 8.65614 4.00087H31.3559C32.5068 4.00087 33.5889 4.45037 34.4054 5.2669C34.8077 5.66601 35.1267 6.14099 35.344 6.66431C35.5613 7.18763 35.6726 7.74888 35.6715 8.31552V23.449C35.67 24.5933 35.2147 25.6902 34.4055 26.4993C33.5963 27.3083 32.4993 27.7634 31.355 27.7646H20.8008V27.7655ZM55.1594 43.4762C55.157 44.6214 54.7005 45.7188 53.8899 46.5277C53.0793 47.3366 51.9809 47.7909 50.8357 47.7909H48.9516C48.5911 47.7909 48.2453 47.9341 47.9904 48.189C47.7355 48.444 47.5923 48.7897 47.5923 49.1502V54.8324C47.5972 54.9386 47.5683 55.0435 47.5099 55.1323C47.4514 55.221 47.3664 55.2889 47.2669 55.3263C47.1464 55.3744 46.918 55.4233 46.6924 55.1922L39.6508 48.1878C39.396 47.9344 39.0513 47.792 38.692 47.7918H28.1432C26.9982 47.7915 25.9001 47.3371 25.0897 46.5283C24.2793 45.7194 23.8228 44.6221 23.8204 43.4771V30.4842H31.355C35.0389 30.4842 38.0639 27.6377 38.3603 24.029H50.8348C53.2192 24.029 55.1585 25.9638 55.1585 28.3427L55.1594 43.4762Z" fill="#3CA4D5"/>
<path d="M19.5575 20.4638C18.7726 20.4638 18.1365 21.1181 18.1365 21.9039C18.1365 22.6705 18.7536 23.3439 19.5575 23.3439C20.3613 23.3439 20.9975 22.6705 20.9975 21.9039C20.9975 21.1181 20.3432 20.4638 19.5575 20.4638ZM19.8348 8.42249C16.942 8.42249 15.6125 10.1371 15.6125 11.2944C15.6125 12.13 16.3194 12.516 16.8985 12.516C18.0558 12.516 17.5846 10.8657 19.7704 10.8657C20.8416 10.8657 21.6989 11.337 21.6989 12.323C21.6989 13.4803 20.499 14.1445 19.7922 14.7445C19.1705 15.2801 18.3558 16.1591 18.3558 18.0025C18.3558 19.1171 18.6557 19.438 19.5348 19.438C20.5851 19.438 20.799 18.9667 20.799 18.5589C20.799 17.4442 20.8208 16.8017 21.9989 15.88C22.5771 15.4296 24.3986 13.9724 24.3986 11.9578C24.3995 9.94408 22.578 8.42249 19.8348 8.42249Z" fill="#3CA4D5"/>
<path d="M41.75 43.6667C45.4319 43.6667 48.4167 40.6819 48.4167 37C48.4167 33.3181 45.4319 30.3334 41.75 30.3334C38.0681 30.3334 35.0834 33.3181 35.0834 37C35.0834 40.6819 38.0681 43.6667 41.75 43.6667Z" stroke="#3CA4D5" stroke-width="2" stroke-linecap="round" stroke-linejoin="round"/>
<path d="M39.0834 37H44.4167" stroke="#3CA4D5" stroke-width="2" stroke-linecap="round" stroke-linejoin="round"/>
<path d="M41.75 34.3334V39.6667" stroke="#3CA4D5" stroke-width="2" stroke-linecap="round" stroke-linejoin="round"/>
</g>
<defs>
<clipPath id="clip0_710_1380">
<rect width="58" height="58" fill="white" transform="translate(0.75 0.683105)"/>
</clipPath>
</defs>
</svg>
