<svg width="59" height="59" viewBox="0 0 59 59" fill="none" xmlns="http://www.w3.org/2000/svg">
<g clip-path="url(#clip0_710_1388)">
<path d="M50.3357 21.3131H37.8911V8.32022C37.8911 6.44428 37.1579 4.678 35.8285 3.34853C35.1772 2.69321 34.4025 2.17351 33.5491 1.81947C32.6958 1.46543 31.7807 1.28408 30.8568 1.2859H8.15614C4.27739 1.2859 1.12183 4.44146 1.12183 8.32022V23.4537C1.12183 27.3324 4.27739 30.488 8.15614 30.488H8.68811V34.8036C8.68572 35.2307 8.76786 35.6541 8.92979 36.0493C9.09173 36.4446 9.33027 36.8039 9.63167 37.1065C9.93307 37.4092 10.2914 37.6492 10.6859 37.8128C11.0805 37.9764 11.5035 38.0603 11.9307 38.0597C12.7816 38.0597 13.6118 37.7217 14.2217 37.0927L20.6017 30.7472V43.48C20.6017 47.3578 23.7609 50.5134 27.6432 50.5134H37.631L44.2575 57.1046C44.7042 57.5673 45.2794 57.8855 45.9088 58.0182C46.5381 58.1508 47.1928 58.0917 47.7883 57.8486C48.3882 57.6063 48.9017 57.1897 49.2623 56.6525C49.6229 56.1153 49.814 55.4823 49.811 54.8353V50.5125H50.3357C54.219 50.5125 57.3782 47.3578 57.3782 43.4791V28.3447C57.3782 24.4687 54.219 21.3131 50.3357 21.3131ZM20.3008 27.7692C19.9414 27.7693 19.5967 27.9117 19.342 28.1653L12.2868 35.1824C12.2192 35.2582 12.1292 35.3107 12.0299 35.3322C11.9306 35.3537 11.827 35.3431 11.734 35.302C11.6337 35.2643 11.548 35.1957 11.4892 35.1061C11.4304 35.0165 11.4015 34.9106 11.4069 34.8036V29.1286C11.4069 28.7681 11.2636 28.4223 11.0087 28.1674C10.7538 27.9125 10.408 27.7692 10.0475 27.7692H8.15614C7.01195 27.768 5.91497 27.313 5.1059 26.5039C4.29683 25.6949 3.84178 24.5979 3.84058 23.4537V8.32022C3.84178 7.17602 4.29683 6.07904 5.1059 5.26998C5.91497 4.46091 7.01195 4.00585 8.15614 4.00465H30.8559C32.0068 4.00465 33.0889 4.45415 33.9054 5.27068C34.3077 5.6698 34.6267 6.14478 34.844 6.66809C35.0613 7.19141 35.1726 7.75266 35.1715 8.31931V23.4528C35.17 24.597 34.7147 25.694 33.9055 26.5031C33.0963 27.3121 31.9993 27.7671 30.855 27.7683H20.3008V27.7692ZM54.6594 43.48C54.657 44.6251 54.2005 45.7226 53.3899 46.5315C52.5793 47.3404 51.4809 47.7947 50.3357 47.7947H48.4516C48.0911 47.7947 47.7453 47.9379 47.4904 48.1928C47.2355 48.4477 47.0923 48.7935 47.0923 49.154V54.8362C47.0972 54.9424 47.0683 55.0473 47.0099 55.136C46.9514 55.2248 46.8664 55.2927 46.7669 55.3301C46.6464 55.3782 46.418 55.4271 46.1924 55.196L39.1508 48.1916C38.896 47.9382 38.5513 47.7958 38.192 47.7956H27.6432C26.4982 47.7953 25.4001 47.3409 24.5897 46.5321C23.7793 45.7232 23.3228 44.6259 23.3204 43.4809V30.488H30.855C34.5389 30.488 37.5639 27.6415 37.8603 24.0328H50.3348C52.7192 24.0328 54.6585 25.9676 54.6585 28.3465L54.6594 43.48Z" fill="#3CA4D5"/>
<path d="M19.0575 20.4676C18.2726 20.4676 17.6365 21.1219 17.6365 21.9076C17.6365 22.6743 18.2536 23.3477 19.0575 23.3477C19.8613 23.3477 20.4975 22.6743 20.4975 21.9076C20.4975 21.1219 19.8432 20.4676 19.0575 20.4676ZM19.3348 8.42627C16.442 8.42627 15.1125 10.1409 15.1125 11.2982C15.1125 12.1337 15.8194 12.5198 16.3985 12.5198C17.5558 12.5198 17.0846 10.8695 19.2704 10.8695C20.3416 10.8695 21.1989 11.3408 21.1989 12.3268C21.1989 13.4841 19.999 14.1483 19.2922 14.7483C18.6705 15.2839 17.8558 16.1629 17.8558 18.0062C17.8558 19.1209 18.1557 19.4417 19.0348 19.4417C20.0851 19.4417 20.299 18.9705 20.299 18.5627C20.299 17.448 20.3208 16.8055 21.4989 15.8838C22.0771 15.4334 23.8986 13.9761 23.8986 11.9616C23.8995 9.94786 22.078 8.42627 19.3348 8.42627Z" fill="#3CA4D5"/>
<g clip-path="url(#clip1_710_1388)">
<path d="M43.5834 30C43.7532 29.7993 43.9632 29.636 44.2 29.5204C44.4369 29.4048 44.6954 29.3395 44.9591 29.3287C45.2228 29.3178 45.4859 29.3616 45.7316 29.4572C45.9773 29.5529 46.2003 29.6984 46.3862 29.8843C46.5722 30.0703 46.7171 30.2927 46.8117 30.5373C46.9063 30.782 46.9486 31.0435 46.9358 31.3053C46.923 31.5671 46.8554 31.8233 46.7373 32.0577C46.6192 32.2921 46.4533 32.4995 46.25 32.6666L37.25 41.6666L33.5834 42.6666L34.5834 39L43.5834 30Z" stroke="#3CA4D5" stroke-width="2" stroke-linecap="round" stroke-linejoin="round"/>
<path d="M42.25 31.3334L44.9167 34" stroke="#3CA4D5" stroke-width="2" stroke-linecap="round" stroke-linejoin="round"/>
</g>
</g>
<defs>
<clipPath id="clip0_710_1388">
<rect width="58" height="58" fill="white" transform="translate(0.25 0.68689)"/>
</clipPath>
<clipPath id="clip1_710_1388">
<rect width="16" height="16" fill="white" transform="translate(32.25 28)"/>
</clipPath>
</defs>
</svg>
